<svg xmlns="http://www.w3.org/2000/svg" viewBox="0 0 1024 1024" width="1024" height="1024" role="img" aria-label="F7FIVE0" xmlns:c2pa="http://c2pa.org/manifest"><metadata><c2pa:manifest>AAAWgmp1bWIAAAAeanVtZGMycGEAEQAQgAAAqgA4m3EDYzJwYQAAABZcanVtYgAAAEdqdW1kYzJtYQARABCAAACqADibcQN1cm46YzJwYTpmNjEzYTQxZS0zNTg3LTQ3MDQtYjQyMi03Y2YyYzc1NjE0N2EAAAADl2p1bWIAAAApanVtZGMyYXMAEQAQgAAAqgA4m3EDYzJwYS5hc3NlcnRpb25zAAAAALxqdW1iAAAARGp1bWRjYm9yABEAEIAAAKoAOJtxE2MycGEuaW5ncmVkaWVudC52MwAAAAAYYzJzaPFhPFJA3tshj8AhWD/QmYYAAABwY2JvcqNpZGM6Zm9ybWF0bWltYWdlL3N2Zyt4bWxqaW5zdGFuY2VJRHgseG1wOmlpZDoyMWZiNmJjMi02NmY3LTQ3N2QtOTczNi00MzE4ZDU1MGUxMTNscmVsYXRpb25zaGlwaHBhcmVudE9mAAAB4mp1bWIAAABBanVtZGNib3IAEQAQgAAAqgA4m3ETYzJwYS5hY3Rpb25zLnYyAAAAABhjMnNoH764D8gvU0hVgK/GpmPihAAAAZljYm9yomdhY3Rpb25zgqJmYWN0aW9ua2MycGEub3BlbmVkanBhcmFtZXRlcnOha2luZ3JlZGllbnRzgaJjdXJseC1zZWxmI2p1bWJmPWMycGEuYXNzZXJ0aW9ucy9jMnBhLmluZ3JlZGllbnQudjNkaGFzaFggbTD46O78wC3uHvX8fHzGdRJZ9h0yYqdPCgntUtoMFGWkZmFjdGlvbngdY29tLmFudGhyb3BpYy5jbGF1ZGUucHJvdmlkZWRqcGFyYW1ldGVyc6F4H2NvbS5hbnRocm9waWMub3JpZ2luLWNvbmZpZGVuY2VndW5rbm93bmtkZXNjcmlwdGlvbnhmQ2xhdWRlIHByb3ZpZGVkIHRoaXMgZmlsZSBhdCB0aGUgcmVxdWVzdCBvZiBhIHVzZXIgYW5kIG1heSBoYXZlIGNyZWF0ZWQgb3IgbW9kaWZpZWQgdGhlIGZpbGUgY29udGVudHMubXNvZnR3YXJlQWdlbnShZG5hbWVmQ2xhdWRlcmFsbEFjdGlvbnNJbmNsdWRlZPUAAADIanVtYgAAAEBqdW1kY2JvcgARABCAAACqADibcRNjMnBhLmhhc2guZGF0YQAAAAAYYzJzaBuIgkpdygzMjr9OPXAWty0AAACAY2JvcqVjYWxnZnNoYTI1NmNwYWRNAAAAAAAAAAAAAAAAAGRoYXNoWCAbvxu0trDL9aj3QBGv2oyBuo4XJBziqwv4Rkq64572N2RuYW1lbmp1bWJmIG1hbmlmZXN0amV4Y2x1c2lvbnOBomVzdGFydBi6Zmxlbmd0aBkeBAAAAj5qdW1iAAAAJ2p1bWRjMmNsABEAEIAAAKoAOJtxA2MycGEuY2xhaW0udjIAAAACD2Nib3KlY2FsZ2ZzaGEyNTZpc2lnbmF0dXJleE1zZWxmI2p1bWJmPS9jMnBhL3VybjpjMnBhOmY2MTNhNDFlLTM1ODctNDcwNC1iNDIyLTdjZjJjNzU2MTQ3YS9jMnBhLnNpZ25hdHVyZWppbnN0YW5jZUlEeCx4bXA6aWlkOjFmZDEzMWIwLWUxMmQtNDBjZC1hNzc0LWI4MjRhYWZkODNmZXJjcmVhdGVkX2Fzc2VydGlvbnODomN1cmx4LXNlbGYjanVtYmY9YzJwYS5hc3NlcnRpb25zL2MycGEuaW5ncmVkaWVudC52M2RoYXNoWCBtMPjo7vzALe4e9fx8fMZ1Eln2HTJip08KCe1S2gwUZaJjdXJseCpzZWxmI2p1bWJmPWMycGEuYXNzZXJ0aW9ucy9jMnBhLmFjdGlvbnMudjJkaGFzaFggiJcpSr/DiRmGNrow8dnynIOCr3E7FN0t8YcfdL/5Y6eiY3VybHgpc2VsZiNqdW1iZj1jMnBhLmFzc2VydGlvbnMvYzJwYS5oYXNoLmRhdGFkaGFzaFgg24dFDrE132kHXsN1nDvuqWN2Ut7FWTWGitjJtERz3/B0Y2xhaW1fZ2VuZXJhdG9yX2luZm+jZG5hbWVvQW50aHJvcGljIEZpbGVzZ3ZlcnNpb25lMS4wLjBrc3BlY1ZlcnNpb25lMi40LjAAABA4anVtYgAAAChqdW1kYzJjcwARABCAAACqADibcQNjMnBhLnNpZ25hdHVyZQAAABAIY2JvctKEWQISogEmGCFZAgowggIGMIIBjaADAgECAhRA5aAK7sI50L64g/oGQgU9Z1UTADAKBggqhkjOPQQDAzBJMRcwFQYDVQQKEw5BbnRocm9waWMsIFBCQzEuMCwGA1UEAxMlQW50aHJvcGljIENvbnRlbnQgQ3JlZGVudGlhbHMgUm9vdCBDQTAeFw0yNjA4MDcxODQzNTZaFw0yODA4MDYxOTQzNTZaMEQxFzAVBgNVBAoTDkFudGhyb3BpYywgUEJDMSkwJwYDVQQDEyBBbnRocm9waWMgQ2xhdWRlIENvbnRlbnQgU2lnbmluZzBZMBMGByqGSM49AgEGCCqGSM49AwEHA0IABJh6CmvLUBgFFNU0vUKlOVtE6djd17L5SuwX0LemFisBM3dkd/3cyjxFA3Qo5S46fX0/ihY0VZ7mfb9KF703t5OjWDBWMA4GA1UdDwEB/wQEAwIHgDAVBgNVHSUEDjAMBgorBgEEAYPoXgIBMAwGA1UdEwEB/wQCMAAwHwYDVR0jBBgwFoAUzlHiBIFOZFsj+OPEz5o+nMHXXMIwCgYIKoZIzj0EAwMDZwAwZAIwMXMdFJ4BetLLVY7ORuE9noqbbAZOZn/aArXyTwFAZfKrPzxF2vPoJNf1+UCdg1XGAjBwX1zd9WGqYkqmL5SFqw1QySjr1zJfpJM9+1rdDwSPLMOPOjKuiXjoU/pUUeG9RwmhY3BhZFkNngAAAAAAAAAAAAAAAAAAAAAAAAAAAAAAAAAAAAAAAAAAAAAAAAAAAAAAAAAAAAAAAAAAAAAAAAAAAAAAAAAAAAAAAAAAAAAAAAAAAAAAAAAAAAAAAAAAAAAAAAAAAAAAAAAAAAAAAAAAAAAAAAAAAAAAAAAAAAAAAAAAAAAAAAAAAAAAAAAAAAAAAAAAAAAAAAAAAAAAAAAAAAAAAAAAAAAAAAAAAAAAAAAAAAAAAAAAAAAAAAAAAAAAAAAAAAAAAAAAAAAAAAAAAAAAAAAAAAAAAAAAAAAAAAAAAAAAAAAAAAAAAAAAAAAAAAAAAAAAAAAAAAAAAAAAAAAAAAAAAAAAAAAAAAAAAAAAAAAAAAAAAAAAAAAAAAAAAAAAAAAAAAAAAAAAAAAAAAAAAAAAAAAAAAAAAAAAAAAAAAAAAAAAAAAAAAAAAAAAAAAAAAAAAAAAAAAAAAAAAAAAAAAAAAAAAAAAAAAAAAAAAAAAAAAAAAAAAAAAAAAAAAAAAAAAAAAAAAAAAAAAAAAAAAAAAAAAAAAAAAAAAAAAAAAAAAAAAAAAAAAAAAAAAAAAAAAAAAAAAAAAAAAAAAAAAAAAAAAAAAAAAAAAAAAAAAAAAAAAAAAAAAAAAAAAAAAAAAAAAAAAAAAAAAAAAAAAAAAAAAAAAAAAAAAAAAAAAAAAAAAAAAAAAAAAAAAAAAAAAAAAAAAAAAAAAAAAAAAAAAAAAAAAAAAAAAAAAAAAAAAAAAAAAAAAAAAAAAAAAAAAAAAAAAAAAAAAAAAAAAAAAAAAAAAAAAAAAAAAAAAAAAAAAAAAAAAAAAAAAAAAAAAAAAAAAAAAAAAAAAAAAAAAAAAAAAAAAAAAAAAAAAAAAAAAAAAAAAAAAAAAAAAAAAAAAAAAAAAAAAAAAAAAAAAAAAAAAAAAAAAAAAAAAAAAAAAAAAAAAAAAAAAAAAAAAAAAAAAAAAAAAAAAAAAAAAAAAAAAAAAAAAAAAAAAAAAAAAAAAAAAAAAAAAAAAAAAAAAAAAAAAAAAAAAAAAAAAAAAAAAAAAAAAAAAAAAAAAAAAAAAAAAAAAAAAAAAAAAAAAAAAAAAAAAAAAAAAAAAAAAAAAAAAAAAAAAAAAAAAAAAAAAAAAAAAAAAAAAAAAAAAAAAAAAAAAAAAAAAAAAAAAAAAAAAAAAAAAAAAAAAAAAAAAAAAAAAAAAAAAAAAAAAAAAAAAAAAAAAAAAAAAAAAAAAAAAAAAAAAAAAAAAAAAAAAAAAAAAAAAAAAAAAAAAAAAAAAAAAAAAAAAAAAAAAAAAAAAAAAAAAAAAAAAAAAAAAAAAAAAAAAAAAAAAAAAAAAAAAAAAAAAAAAAAAAAAAAAAAAAAAAAAAAAAAAAAAAAAAAAAAAAAAAAAAAAAAAAAAAAAAAAAAAAAAAAAAAAAAAAAAAAAAAAAAAAAAAAAAAAAAAAAAAAAAAAAAAAAAAAAAAAAAAAAAAAAAAAAAAAAAAAAAAAAAAAAAAAAAAAAAAAAAAAAAAAAAAAAAAAAAAAAAAAAAAAAAAAAAAAAAAAAAAAAAAAAAAAAAAAAAAAAAAAAAAAAAAAAAAAAAAAAAAAAAAAAAAAAAAAAAAAAAAAAAAAAAAAAAAAAAAAAAAAAAAAAAAAAAAAAAAAAAAAAAAAAAAAAAAAAAAAAAAAAAAAAAAAAAAAAAAAAAAAAAAAAAAAAAAAAAAAAAAAAAAAAAAAAAAAAAAAAAAAAAAAAAAAAAAAAAAAAAAAAAAAAAAAAAAAAAAAAAAAAAAAAAAAAAAAAAAAAAAAAAAAAAAAAAAAAAAAAAAAAAAAAAAAAAAAAAAAAAAAAAAAAAAAAAAAAAAAAAAAAAAAAAAAAAAAAAAAAAAAAAAAAAAAAAAAAAAAAAAAAAAAAAAAAAAAAAAAAAAAAAAAAAAAAAAAAAAAAAAAAAAAAAAAAAAAAAAAAAAAAAAAAAAAAAAAAAAAAAAAAAAAAAAAAAAAAAAAAAAAAAAAAAAAAAAAAAAAAAAAAAAAAAAAAAAAAAAAAAAAAAAAAAAAAAAAAAAAAAAAAAAAAAAAAAAAAAAAAAAAAAAAAAAAAAAAAAAAAAAAAAAAAAAAAAAAAAAAAAAAAAAAAAAAAAAAAAAAAAAAAAAAAAAAAAAAAAAAAAAAAAAAAAAAAAAAAAAAAAAAAAAAAAAAAAAAAAAAAAAAAAAAAAAAAAAAAAAAAAAAAAAAAAAAAAAAAAAAAAAAAAAAAAAAAAAAAAAAAAAAAAAAAAAAAAAAAAAAAAAAAAAAAAAAAAAAAAAAAAAAAAAAAAAAAAAAAAAAAAAAAAAAAAAAAAAAAAAAAAAAAAAAAAAAAAAAAAAAAAAAAAAAAAAAAAAAAAAAAAAAAAAAAAAAAAAAAAAAAAAAAAAAAAAAAAAAAAAAAAAAAAAAAAAAAAAAAAAAAAAAAAAAAAAAAAAAAAAAAAAAAAAAAAAAAAAAAAAAAAAAAAAAAAAAAAAAAAAAAAAAAAAAAAAAAAAAAAAAAAAAAAAAAAAAAAAAAAAAAAAAAAAAAAAAAAAAAAAAAAAAAAAAAAAAAAAAAAAAAAAAAAAAAAAAAAAAAAAAAAAAAAAAAAAAAAAAAAAAAAAAAAAAAAAAAAAAAAAAAAAAAAAAAAAAAAAAAAAAAAAAAAAAAAAAAAAAAAAAAAAAAAAAAAAAAAAAAAAAAAAAAAAAAAAAAAAAAAAAAAAAAAAAAAAAAAAAAAAAAAAAAAAAAAAAAAAAAAAAAAAAAAAAAAAAAAAAAAAAAAAAAAAAAAAAAAAAAAAAAAAAAAAAAAAAAAAAAAAAAAAAAAAAAAAAAAAAAAAAAAAAAAAAAAAAAAAAAAAAAAAAAAAAAAAAAAAAAAAAAAAAAAAAAAAAAAAAAAAAAAAAAAAAAAAAAAAAAAAAAAAAAAAAAAAAAAAAAAAAAAAAAAAAAAAAAAAAAAAAAAAAAAAAAAAAAAAAAAAAAAAAAAAAAAAAAAAAAAAAAAAAAAAAAAAAAAAAAAAAAAAAAAAAAAAAAAAAAAAAAAAAAAAAAAAAAAAAAAAAAAAAAAAAAAAAAAAAAAAAAAAAAAAAAAAAAAAAAAAAAAAAAAAAAAAAAAAAAAAAAAAAAAAAAAAAAAAAAAAAAAAAAAAAAAAAAAAAAAAAAAAAAAAAAAAAAAAAAAAAAAAAAAAAAAAAAAAAAAAAAAAAAAAAAAAAAAAAAAAAAAAAAAAAAAAAAAAAAAAAAAAAAAAAAAAAAAAAAAAAAAAAAAAAAAAAAAAAAAAAAAAAAAAAAAAAAAAAAAAAAAAAAAAAAAAAAAAAAAAAAAAAAAAAAAAAAAAAAAAAAAAAAAAAAAAAAAAAAAAAAAAAAAAAAAAAAAAAAAAAAAAAAAAAAAAAAAAAAAAAAAAAAAAAAAAAAAAAAAAAAAAAAAAAAAAAAAAAAAAAAAAAAAAAAAAAAAAAAAAAAAAAAAAAAAAAAAAAAAAAAAAAAAAAAAAAAAAAAAAAAAAAAAAAAAAAAAAAAAAAAAAAAAAAAAAAAAAAAAAAAAAAAAAAAAAAAAAAAAAAAAAAAAAAAAAAAAAAAAAAAAAAAAAAAAAAAAAAAAAAAAAAAAAAAAAAAAAAAAAAAAAAAAAAAAAAAAAAAAAAAAAAAAAAAAAAAAAAAAAAAAAAAAAAAAAAAAAAAAAAAAAAAAAAAAAAAAAAAAAAAAAAAAAAAAAAAAAAAAAAAAAAAAAAAAAAAAAAAAAAAAAAAAAAAAAAAAAAAAAAAAAAAAAAAAAAAAAAAAAAAAAAAAAAAAAAAAAAAAAAAAAAAAAAAAAAAAAAAAAAAAAAAAAAAAAAAAAAAAAAAAAAAAAAAAAAAAAAAAAAAAAAAAAAAAAAAAAAAAAAAAAAAAAAAAAAAAAAAAAAAAAAAAAAAAAAAAAAAAAAAAAAAAAAAAAAAAAAAAAAAAAAAAAAAAAAAAAAAAAAAAAAAAAAAAAAAAAAAAAAAAAAAAAAAAAAAAAAAAAAAAAAAAAAAAAAAAAAAAAAAAAAAAAAAAAAAAAAAAAAAAAAAAAAAAAAAAAAAAAAAAAAAAAAAAAAAAAAAAAAAAAAAAAAAAAAAAAAAAAAAAAAAAAAAAAAAAAAAAAAAAAAAAAAAAAAAAAAAAAAAAAAAAAAAAAAAAAAAAAAAAAAAAAAAAAAAAAAAAAAAAAAAAAAAAAAAAAAAAAAAAAAAAAAAAAAAAAAAAAAAAAAAAAAAAAAAAAAAAAAAAAAAAAAAAAAAAAAAAAAAAAAAAAAAAAAAAAAAAAAAAAAAAAAAAAAAAAAAAAAAAAAAAAAAAAAAAAAAAAAAAAAAAAAAAAAAAAAAAAAAAAAAAAAAAAAAAAAAAAAAAAAAAAAAAAAAAAAAAAAAAAAAAAAAAAAAAAAAAAAAAAAAAAAAAAAAAAAAAAAAAAAAAAAAAAAAAAAAAAAAAAAAAAAAAAAAAAAAAAAAAAAAAAAAAAAAAAAAAAAAAAAAAAAAAAAAAAAAAAAAAAAAAAAAAAAAAAAAAAAAAAAAAAAAAAAAAAAAAAAAAAAAAAAAAAAAAAAAAAAAAAAAAAAAAAAAAAAAAAAAAAAAAAAAAAAAAAAAAAAAAAAAAAAAAAAAAAAAAAAAAAAAAAAAAAAAAAAAAAAAAAAAAAAAAAAAAAAAAAAAAAPZYQIvB2gfCWg57yKwxlJ0uGOv+cPmYk1V02YRYTAsFkoA71yuDfZa/q7QaU0hn+C+pQgUPxi9EwSPrzulgq7k8qsQ=</c2pa:manifest></metadata>
  <title>F7FIVE0</title>
  <!-- F7FIVE0 honeycomb mark. Front cell: black wall, hive-red stripe #9C0404, white field, solid black F rotated 60 degrees counter-clockwise so its arms run parallel to the upper-right side (flat-top hexagon), lying on the cell's plane. The comb plane is turned 55 degrees away to the left; the other cells are black, fading with distance, separated by white walls. Full comb: app icon, splash, login. Sits on white. -->
  <svg x="0.00" y="0.00" width="1024.00" height="1024.00" viewBox="0 0 1024 1024">
  <polygon fill="#000000" fill-opacity="0.087" points="178.64,-79.11 157.54,76.93 120.49,112.22 104.13,13.04 120.49,-126.61 157.54,-182.98"/>
  <polygon fill="#000000" fill-opacity="0.159" points="178.64,216.44 157.54,359.44 120.49,371.82 104.13,262.52 120.49,132.99 157.54,99.53"/>
  <polygon fill="#000000" fill-opacity="0.187" points="178.64,512.00 157.54,641.96 120.49,631.42 104.13,512.00 120.49,392.58 157.54,382.04"/>
  <polygon fill="#000000" fill-opacity="0.159" points="178.64,807.56 157.54,924.47 120.49,891.01 104.13,761.48 120.49,652.18 157.54,664.56"/>
  <polygon fill="#000000" fill-opacity="0.087" points="178.64,1103.11 157.54,1206.98 120.49,1150.61 104.13,1010.96 120.49,911.78 157.54,947.07"/>
  <polygon fill="#000000" fill-opacity="0.159" points="263.34,-357.85 234.34,-161.21 184.46,-98.29 162.86,-202.51 184.46,-373.51 234.34,-464.81"/>
  <polygon fill="#000000" fill-opacity="0.282" points="263.34,-9.91 234.34,168.80 184.46,200.87 162.86,83.30 184.46,-74.35 234.34,-134.81"/>
  <polygon fill="#000000" fill-opacity="0.358" points="263.34,338.03 234.34,498.80 184.46,500.03 162.86,369.10 184.46,224.81 234.34,195.20"/>
  <polygon fill="#000000" fill-opacity="0.358" points="263.34,685.97 234.34,828.80 184.46,799.19 162.86,654.90 184.46,523.97 234.34,525.20"/>
  <polygon fill="#000000" fill-opacity="0.282" points="263.34,1033.91 234.34,1158.81 184.46,1098.35 162.86,940.70 184.46,823.13 234.34,855.20"/>
  <polygon fill="#000000" fill-opacity="0.159" points="263.34,1381.85 234.34,1488.81 184.46,1397.51 162.86,1226.51 184.46,1122.29 234.34,1185.21"/>
  <polygon fill="#000000" fill-opacity="0.187" points="384.55,-756.68 342.17,-495.59 271.44,-384.48 241.61,-491.51 271.44,-709.19 342.17,-860.54"/>
  <polygon fill="#000000" fill-opacity="0.358" points="384.55,-333.79 342.17,-98.90 271.44,-31.54 241.61,-157.01 271.44,-356.25 342.17,-463.85"/>
  <polygon fill="#000000" fill-opacity="0.504" points="384.55,89.11 342.17,297.79 271.44,321.41 241.61,177.50 271.44,-3.30 342.17,-67.17"/>
  <polygon fill="#000000" fill-opacity="0.567" points="384.55,512.00 342.17,694.48 271.44,674.35 241.61,512.00 271.44,349.65 342.17,329.52"/>
  <polygon fill="#000000" fill-opacity="0.504" points="384.55,934.89 342.17,1091.17 271.44,1027.30 241.61,846.50 271.44,702.59 342.17,726.21"/>
  <polygon fill="#000000" fill-opacity="0.358" points="384.55,1357.79 342.17,1487.85 271.44,1380.25 241.61,1181.01 271.44,1055.54 342.17,1122.90"/>
  <polygon fill="#000000" fill-opacity="0.187" points="384.55,1780.68 342.17,1884.54 271.44,1733.19 241.61,1515.51 271.44,1408.48 342.17,1519.59"/>
  <polygon fill="#000000" fill-opacity="0.159" points="572.31,-1374.53 504.62,-999.33 396.54,-796.14 352.71,-899.22 396.54,-1192.03 504.62,-1456.71"/>
  <polygon fill="#000000" fill-opacity="0.358" points="572.31,-835.52 504.62,-502.18 396.54,-365.83 352.71,-496.02 396.54,-761.72 504.62,-959.56"/>
  <polygon fill="#000000" fill-opacity="0.567" points="572.31,-296.51 504.62,-5.03 396.54,64.48 352.71,-92.81 396.54,-331.41 504.62,-462.41"/>
  <polygon fill="#000000" fill-opacity="0.745" points="572.31,242.50 504.62,492.11 396.54,494.79 352.71,310.40 396.54,98.90 504.62,34.74"/>
  <polygon fill="#000000" fill-opacity="0.745" points="572.31,781.50 504.62,989.26 396.54,925.10 352.71,713.60 396.54,529.21 504.62,531.89"/>
  <polygon fill="#000000" fill-opacity="0.567" points="572.31,1320.51 504.62,1486.41 396.54,1355.41 352.71,1116.81 396.54,959.52 504.62,1029.03"/>
  <polygon fill="#000000" fill-opacity="0.358" points="572.31,1859.52 504.62,1983.56 396.54,1785.72 352.71,1520.02 396.54,1389.83 504.62,1526.18"/>
  <polygon fill="#000000" fill-opacity="0.159" points="572.31,2398.53 504.62,2480.71 396.54,2216.03 352.71,1923.22 396.54,1820.14 504.62,2023.33"/>
  <polygon fill="#000000" fill-opacity="0.087" points="902.21,-2460.08 777.25,-1844.74 591.89,-1438.95 521.25,-1517.71 591.89,-1945.97 777.25,-2457.23"/>
  <polygon fill="#000000" fill-opacity="0.282" points="902.21,-1717.06 777.25,-1178.99 591.89,-887.83 521.25,-1010.29 591.89,-1394.86 777.25,-1791.48"/>
  <polygon fill="#000000" fill-opacity="0.504" points="902.21,-974.04 777.25,-513.25 591.89,-336.72 521.25,-502.86 591.89,-843.74 777.25,-1125.73"/>
  <polygon fill="#000000" fill-opacity="0.745" points="902.21,-231.02 777.25,152.50 591.89,214.40 521.25,4.57 591.89,-292.63 777.25,-459.99"/>
  <polygon fill="#000000" fill-opacity="0.745" points="902.21,1255.02 777.25,1483.99 591.89,1316.63 521.25,1019.43 591.89,809.60 777.25,871.50"/>
  <polygon fill="#000000" fill-opacity="0.504" points="902.21,1998.04 777.25,2149.73 591.89,1867.74 521.25,1526.86 591.89,1360.72 777.25,1537.25"/>
  <polygon fill="#000000" fill-opacity="0.282" points="902.21,2741.06 777.25,2815.48 591.89,2418.86 521.25,2034.29 591.89,1911.83 777.25,2202.99"/>
  <polygon fill="#000000" fill-opacity="0.087" points="902.21,3484.08 777.25,3481.23 591.89,2969.97 521.25,2541.71 591.89,2462.95 777.25,2868.74"/>
  <polygon points="926.96,512.00 787.08,847.91 585.27,785.51 510.09,512.00 585.27,238.49 787.08,176.09" fill="#000000"/>
  <polygon points="851.48,512.00 756.40,755.28 606.70,720.78 546.72,512.00 606.70,303.22 756.40,268.72" fill="#9C0404"/>
  <polygon points="825.63,512.00 745.39,722.03 614.97,695.81 561.26,512.00 614.97,328.19 745.39,301.97" fill="#FFFFFF"/>
  <polygon fill="#000000" points="578.47,527.11 593.68,476.35 744.56,636.18 723.84,692.17"/>
  <polygon fill="#000000" points="592.91,478.93 632.14,347.98 657.09,369.88 615.77,503.23"/>
  <polygon fill="#000000" points="647.31,536.76 686.22,416.72 714.19,441.87 673.08,564.16"/>
  </svg>
</svg>
